<svg xmlns="http://www.w3.org/2000/svg" width="21.528" height="11.132" viewBox="0 0 21.528 11.132"><g transform="translate(-1038.76 -122.169)"><path d="M1161.345,151.3v3.993a17.853,17.853,0,0,1,2.6,1.829c1.891,1.488,5.141,1.616,5.141,1.616,1.655-1.723,1.95-8.063,0-11.116C1165.9,147.385,1163.118,149.89,1161.345,151.3Z" transform="translate(-110.153 -25.435)" fill="#272727"/><path d="M1146.79,151.3v3.993a17.849,17.849,0,0,0-2.6,1.829c-1.891,1.488-5.141,1.616-5.141,1.616-1.655-1.723-1.95-8.063,0-11.116C1142.239,147.385,1145.017,149.89,1146.79,151.3Z" transform="translate(-98.934 -25.435)" fill="#272727"/><rect width="1.98" height="5.323" rx="0.99" transform="translate(1048.56 125.199)" fill="#272727"/></g></svg>