<svg xmlns="http://www.w3.org/2000/svg" width="17" height="20.583" viewBox="0 0 17 20.583"><g transform="translate(-883.648 -119.3)"><path d="M906.16,170.438a8.235,8.235,0,0,1-2.259-1.117c-.694-.459-1.276-1.084-1.953-1.569a3.224,3.224,0,0,0-3.467-.136.966.966,0,0,0-.269.2.981.981,0,0,0-.269-.2,3.223,3.223,0,0,0-3.466.136c-.677.485-1.259,1.11-1.953,1.569a8.239,8.239,0,0,1-2.259,1.117c-.168.042-.339.062-.5.114a4.081,4.081,0,0,0,.636.718,5.56,5.56,0,0,0,2.468.995,4.505,4.505,0,0,0,3.374-.774,7.7,7.7,0,0,0,1.969-2.344,7.706,7.706,0,0,0,1.969,2.344,4.506,4.506,0,0,0,3.374.774,5.561,5.561,0,0,0,2.469-.995,4.1,4.1,0,0,0,.636-.718C906.5,170.5,906.327,170.48,906.16,170.438Z" transform="translate(-6.064 -32.444)" fill="#272727"/><path d="M906.653,143.113a3.75,3.75,0,0,0-3.775-3.725,3.815,3.815,0,0,0-1.129.17,3.791,3.791,0,0,0-7.191,0,3.816,3.816,0,0,0-1.129-.17,3.718,3.718,0,0,0-1.354,7.2v4.149H903.6v-3.969a3.739,3.739,0,0,0,3.055-3.657" transform="translate(-6.005 -17.666)" fill="#272727"/></g></svg>