<svg xmlns="http://www.w3.org/2000/svg" width="20.625" height="19.64" viewBox="0 0 20.625 19.64"><path d="M747.674,138.293l2.99,6.058a.254.254,0,0,0,.191.139l6.686.972a.254.254,0,0,1,.14.434l-4.838,4.715a.254.254,0,0,0-.073.225l1.142,6.659a.254.254,0,0,1-.369.268l-5.98-3.144a.255.255,0,0,0-.237,0l-5.98,3.144a.254.254,0,0,1-.369-.268l1.142-6.659a.252.252,0,0,0-.073-.225l-4.838-4.715a.254.254,0,0,1,.141-.434l6.686-.972a.252.252,0,0,0,.191-.139l2.99-6.058A.254.254,0,0,1,747.674,138.293Z" transform="translate(-737.134 -138.152)" fill="#272727"/></svg>