<svg xmlns="http://www.w3.org/2000/svg" width="1920" height="90.678" viewBox="0 0 1920 90.678"><g transform="translate(0 -1615.064)"><g style="isolation:isolate"><g style="isolation:isolate"><path d="M939.8,1640.577h-5.356l-1.236-4.463h-7.655l-1.236,4.463h-5.356l6.969-22.864H932.8Zm-13.081-8.754h5.253l-2.609-9.578Z" fill="#555"/><path d="M956.628,1640.577v-9.2h-7.381v9.2H944.1v-22.864h5.149v9.1h7.381v-9.1h5.15v22.864Z" fill="#555"/><path d="M967.963,1640.577v-22.864h5.149v18.3h9.064v4.566Z" fill="#555"/><path d="M1006.967,1640.577h-5.355l-1.236-4.463H992.72l-1.236,4.463h-5.355l6.969-22.864h6.866Zm-13.08-8.754h5.253l-2.609-9.578Z" fill="#555"/><path d="M1016.174,1625.54v15.037h-4.909v-22.864h6.317l7.518,15.757v-15.757h4.909v22.864h-6.351Z" fill="#555"/></g></g><path d="M918.626,1656.529a2.467,2.467,0,0,0,2.877-1.862c.092-1.144-1.048-2.176-2.543-2.289a2.468,2.468,0,0,0-2.877,1.863C915.992,1655.382,917.133,1656.41,918.626,1656.529Z" fill="#555"/><path d="M1567.111,1699.159c-221.473,18.954-341.631-50.784-402.242-50.784-22.878,0-45.193,7.3-65.529,17.3-11.119,5.469-21.928,11.608-33.355,16.434-11.135,4.705-28.32,10.771-37.234-1.126a15.338,15.338,0,0,1-3.023-9.231,25.047,25.047,0,0,0,6.655-4.381c1.855-1.726,4.5-4.325,3.349-7.112-1.425-3.455-7.706-1.71-9.979-.323-4.086,2.491-5.864,7.5-5.757,12.1,0,.17.02.334.029.5-1.089.3-2.189.552-3.292.77a39.9,39.9,0,0,1-18.6-.279,26.4,26.4,0,0,1-9.855-5.214,44.326,44.326,0,0,0,1.074-6.938,11.441,11.441,0,0,0-1.036-6.461,4.98,4.98,0,0,0-5.563-2.565,4.8,4.8,0,0,0-2.969,4.02,9.6,9.6,0,0,0,1.04,5.1,21.259,21.259,0,0,0,5.037,6.795,110.877,110.877,0,0,1-9.411,25.183c-.779-2.009-1.682-3.994-2.4-5.946-1.422-3.85-2.808-7.713-4.22-11.566-2.78-7.586-5.469-15.2-8.372-22.736-.461-1.192-5.182-.821-4.88.265.683,2.466,1.41,4.914,2.162,7.358-6.082,11.211-15.355,24.211-28.141,27.612-6.93,1.843-9.278-4.978-9.856-10.546a57.481,57.481,0,0,1-.283-7.818c.065-1.944.382-4.548-.549-6.322a1.191,1.191,0,0,0-.991-.467c-.669-.11-1.54.031-1.775.388-.044.069-.082.142-.125.212a4.129,4.129,0,0,0-.517.6.471.471,0,0,0-.062.055,143.661,143.661,0,0,1-12.337,16.5c-4.254,4.833-8.843,10.206-14.187,13.863-2.334,1.595-6.452,3.926-9.3,2.245-2.593-1.534-3.377-5.937-3.9-8.572-1.36-6.838-.713-13.989-.209-20.885.35-4.789.914-9.539,1.618-14.266a94.221,94.221,0,0,0,9.334-15.695q2.051-4.3,3.734-8.775c.991-2.619,2.442-5.621,2.276-8.5a4.822,4.822,0,0,0-4.754-4.888,4.765,4.765,0,0,0-.715.044c-5.234.429-7.272,6.08-9.105,10.165a117.8,117.8,0,0,0-9.157,34.652,56.444,56.444,0,0,1-9.107,7.162c-12.036,8.289-26.786,10.458-41.129,9.457-22.1-1.542-42.278-10.861-63.807-15.389a274.083,274.083,0,0,0-64.164-5.494c-113.729,3.69-254.069,42.144-365.138,35.02C151.39,1679.459,39.727,1644.475,0,1637.43v21.886s193.994,30.922,327.723,35.977c128.028,4.84,229.461-29.375,363.881-37.8,11.521-.722,55.336,3.612,66.174,6.277,12.259,3.015,34.152,9.9,46.565,12.36,13.569,2.7,27.929,3.507,41.4-.187a57.369,57.369,0,0,0,23.733-13.337c-.317,3.456-.509,6.9-.542,10.288-.079,6.923.468,18.007,6.211,22.926,3.307,2.829,8.043,3.06,11.989,1.646,5.921-2.124,10.365-7.186,14.59-11.612a119.23,119.23,0,0,0,13.291-16.289c-.069.694-.12,1.367-.165,1.987-.006.058-.015.117-.021.176l.009-.015a28.228,28.228,0,0,0,.847,10.022c1.743,5.9,6.614,8.911,12.708,8.338,6.676-.63,12.605-5.168,17.424-9.5A68.483,68.483,0,0,0,959.48,1662.8q1.918,6.114,4,12.185,1.988,5.838,4.149,11.612c1.377,3.688,2.508,7.885,4.543,11.257.472.782,3.291,1.062,4.775.613l.034-.01c.459-.144.691-.055,1.084-.948a175.67,175.67,0,0,0,8.256-22.646c.554-1.8,1.088-3.606,1.555-5.428a27.192,27.192,0,0,0,6.506,3.53,41.19,41.19,0,0,0,18.314,1.974,48,48,0,0,0,7.437-1.24c1.4,10.684,13.651,15.926,23.449,15.94,14.69.02,29.114-8.166,41.816-14.712a274.172,274.172,0,0,1,42.583-17.89,119.188,119.188,0,0,1,48.1-5.367c63.141,6.27,165.121,68.11,390.805,51.139,182.447-13.719,353.111-42.554,353.111-42.554v-22.28C1856.548,1650.275,1788.583,1680.2,1567.111,1699.159Zm-541.033-30.877a13.937,13.937,0,0,1,2.366-5.521,7.1,7.1,0,0,1,3.394-2.561c2.052-.587,3,.43,2.162,2.7a13.11,13.11,0,0,1-4.179,5.111,24.344,24.344,0,0,1-4.046,2.409,16.668,16.668,0,0,1,.306-2.133Zm-142.457-44.167,0-.007c.461-2.173,1.113-6.628,3.645-7.62a2.723,2.723,0,0,1,3.471,1.668,2.779,2.779,0,0,1,.1.367,8.113,8.113,0,0,1-.064,4.257c-1.4,5.961-4.384,11.988-7.181,17.4-1.443,2.8-3.024,5.538-4.746,8.192C880.2,1640.252,881.911,1632.19,883.621,1624.115Zm102.673,41.8a20.566,20.566,0,0,1-2.822-3.868,10.723,10.723,0,0,1-1.587-6.6c.167-1.186.843-2.5,2.035-2.652,1.526-.194,2.506,1.575,2.815,3.078A24.179,24.179,0,0,1,986.294,1665.918Z" fill="#555"/></g></svg>