<?xml version="1.0" encoding="utf-8"?>
<!-- Generator: Adobe Illustrator 24.0.1, SVG Export Plug-In . SVG Version: 6.00 Build 0)  -->
<svg version="1.1" id="Layer_1" xmlns="http://www.w3.org/2000/svg" xmlns:xlink="http://www.w3.org/1999/xlink" x="0px" y="0px"
	 viewBox="0 0 375 46.76" style="enable-background:new 0 0 375 46.76;" xml:space="preserve">
<style type="text/css">
	.st0{fill:#F1F1F5;}
	.st1{fill:#2E2E2F;}
</style>
<g>
	<path id="Path_10521" class="st0" d="M220.74,34c0.22,2.79,2.1,5.18,4.77,6.04c4.71,1.72,9.49,1.2,18.99-3.69
		s21.2-11.03,29.73-12.32s17.35-1.94,27.71,2.6s39.52,17.38,73.04-0.33L374.95,0h-375v30.52c0,0,23.7,4.93,68.87-5.82
		c2.7-1.03,12.91-1.2,18.96-0.69c5.65,0.47,21.63,6.98,30.48,9.73s23.53,4.41,34.09-5.24c1.7,1.75,0.27,11.74,1.95,14.01
		s3.7,3.49,7.69,0.79s11.22-12.64,11.22-12.64s0.1,5.57,1.38,7.48s2.15,4.03,6.52,2.2s10.39-9.1,11.6-12.35
		c2.66,5.74,7.11,16.54,7.11,16.54s5.02-9.27,5.01-12.97c0.26-0.54,1.08,1.26,3.8,2.12s7.87,1.44,11.68-0.08
		C221.23,33.28,220.74,34,220.74,34z"/>
	<g id="Group_4" transform="translate(0.073 -33.247)">
		<g id="Group_3">
			<g id="Group_1">
				<path id="Path_1-2" class="st1" d="M174.59,62.56c-0.15-0.27-0.98-0.24-1.14,0c-0.07,0.1-0.12,0.2-0.18,0.31
					c-0.05,0.01-0.1,0.04-0.14,0.08c-1.67,2.6-3.52,5.07-5.54,7.4c-1.86,2.32-4,4.41-6.37,6.22c-1.05,0.72-2.9,1.76-4.17,1.01
					c-1.16-0.69-1.51-2.67-1.75-3.85c-0.45-3.11-0.48-6.26-0.1-9.37c0.16-2.15,0.41-4.28,0.73-6.4c1.62-2.21,3.02-4.56,4.19-7.04
					c0.61-1.29,1.17-2.6,1.68-3.94c0.59-1.19,0.94-2.49,1.02-3.81c0.01-1.2-0.94-2.18-2.14-2.19c-0.11,0-0.21,0.01-0.31,0.02
					c-2.35,0.19-3.26,2.73-4.09,4.56c-2.16,4.94-3.54,10.19-4.11,15.55c-1.25,1.21-2.62,2.29-4.09,3.21
					c-5.4,3.72-12.02,4.69-18.46,4.24c-9.92-0.69-22.65-6.13-27.67-7.91c-4.7-1.67-9.78-3.84-17.71-4.44
					c-15.21-1.16-27.6,3.33-42.71,5.71c-11.41,1.79-28.2,2.03-41.62-3.28c-0.01-1.21,0.03,5.37,0.03,6.3c0,0,12.9,4.61,41.9-0.32
					c15.13-2.58,25.6-7.3,42.31-6.2c9.46,0.62,15.84,2.97,21.61,4.98c5.57,2.03,11.27,3.69,17.05,4.98
					c6.09,1.21,12.53,1.57,18.58-0.08c3.98-1.11,7.63-3.16,10.65-5.98c-0.14,1.55-0.23,3.1-0.24,4.62
					c-0.04,3.11,0.21,8.08,2.79,10.29c1.54,1.18,3.58,1.46,5.38,0.74c2.66-0.95,4.65-3.22,6.55-5.21c2.22-2.27,4.22-4.74,6-7.36
					c-0.05,0.34-0.09,0.68-0.12,1.02 M158.4,45.03c0.21-0.97,0.5-2.97,1.64-3.42c0.64-0.22,1.33,0.11,1.56,0.75l0,0
					c0.02,0.05,0.03,0.11,0.04,0.16c0.16,0.63,0.15,1.29-0.03,1.91c-0.76,2.72-1.84,5.34-3.22,7.81c-0.65,1.26-1.36,2.48-2.13,3.68
					C156.87,52.28,157.64,48.66,158.4,45.03L158.4,45.03z"/>
			</g>
			<g id="Group_2">
				<path id="Path_2-2" class="st1" d="M174.12,59.58c0.59,0.11,1.16-0.26,1.29-0.84c0.04-0.51-0.47-0.98-1.14-1.03
					c-0.59-0.12-1.16,0.25-1.29,0.84C172.94,59.07,173.45,59.53,174.12,59.58z"/>
				<path id="Path_3-2" class="st1" d="M330.97,69.43c23.58,1.38,44-7.57,44-7.57l-0.08-5.6c-6.06,5.61-28.92,11.99-45.5,10.87
					c-20.56-1.39-24.07-11.66-44.77-11.66c-10.27-0.04-20.28,3.73-29.41,8.22c-4.99,2.45-9.84,5.21-14.97,7.37
					c-5,2.11-12.71,4.83-16.71-0.5c-0.89-1.2-1.36-2.65-1.36-4.14c1.09-0.49,2.1-1.16,2.99-1.97c0.83-0.77,2.02-1.94,1.5-3.19
					c-0.64-1.55-3.46-0.77-4.48-0.15c-1.75,1.23-2.73,3.29-2.58,5.43c0,0.08,0.01,0.15,0.01,0.22c-0.49,0.13-0.98,0.25-1.48,0.35
					c-2.75,0.62-5.62,0.57-8.35-0.12c-1.62-0.46-3.13-1.25-4.42-2.34c0.24-1.02,0.4-2.06,0.48-3.11c0.13-0.99-0.03-2-0.47-2.9
					c-0.47-0.91-1.5-1.39-2.5-1.15c-0.75,0.3-1.26,1-1.33,1.8c-0.06,0.79,0.1,1.58,0.47,2.29c0.54,1.16,1.31,2.19,2.26,3.05
					c-0.94,3.92-2.36,7.72-4.22,11.3c-0.35-0.9-0.76-1.79-1.08-2.67c-0.64-1.73-1.26-3.46-1.89-5.19c-1.25-3.4-2.46-6.82-3.76-10.2
					c-0.21-0.53-2.32-0.37-2.19,0.12c0.31,1.11,0.63,2.2,0.97,3.3c-2.73,5.03-6.89,10.87-12.63,12.39
					c-3.11,0.83-4.16-2.23-4.42-4.73c-0.12-1.17-0.16-2.34-0.13-3.51c0.14-0.95,0.06-1.92-0.25-2.84c-0.13-0.25-0.66-0.26-1.01-0.15
					c-0.22,0.12-0.92,0.61-1.09,2.25c-0.09,0.57-0.13,1.14-0.17,1.64c-0.15,1.53-0.02,3.07,0.38,4.55c0.66,2.52,3.12,4.14,5.7,3.74
					c3-0.28,5.66-2.32,7.82-4.26c2.47-2.3,4.54-5,6.13-7.98c0.57,1.83,1.17,3.65,1.79,5.47c0.6,1.75,1.22,3.48,1.86,5.21
					c0.53,1.74,1.21,3.43,2.04,5.05c0.21,0.35,1.48,0.48,2.15,0.28h0.01c0.21-0.06,0.31-0.02,0.49-0.43c1.46-3.3,2.7-6.69,3.7-10.16
					c0.25-0.81,0.49-1.62,0.7-2.44c0.9,0.66,1.88,1.19,2.92,1.58c2.64,0.91,5.45,1.21,8.22,0.89c1.12-0.1,2.24-0.28,3.34-0.56
					c0.63,4.79,6.13,7.15,10.52,7.15c6.59,0.01,13.06-3.67,18.76-6.6c6.23-3.21,12.4-6.44,19.11-8.59
					c6.95-2.29,14.31-3.06,21.59-2.23C303.48,58.24,310.14,68.21,330.97,69.43z M203.22,62.06c-0.55-0.88-0.8-1.92-0.71-2.96
					c0.08-0.53,0.38-1.12,0.91-1.19c0.69-0.09,1.12,0.71,1.26,1.38c0.25,1.5,0.18,3.03-0.2,4.5C204,63.26,203.57,62.68,203.22,62.06
					L203.22,62.06z M222.34,64.86c0.17-0.89,0.53-1.74,1.06-2.48c0.38-0.53,0.91-0.93,1.52-1.15c0.92-0.26,1.35,0.19,0.97,1.21
					c-0.42,0.91-1.06,1.7-1.88,2.29c-0.57,0.42-1.18,0.78-1.82,1.08C222.22,65.49,222.27,65.17,222.34,64.86L222.34,64.86z"/>
			</g>
		</g>
		<g id="AHLAN">
			<g id="Group_84">
				<path id="Path_2145" class="st1" d="M183.62,52.42h-2.4l-0.55-2h-3.44l-0.55,2h-2.4l3.13-10.26h3.08L183.62,52.42z M177.75,48.5
					h2.36l-1.17-4.3L177.75,48.5z"/>
				<path id="Path_2146" class="st1" d="M191.17,52.42V48.3h-3.31v4.13h-2.31V42.17h2.31v4.08h3.31v-4.08h2.31v10.26L191.17,52.42z"
					/>
				<path id="Path_2147" class="st1" d="M196.25,52.42V42.16h2.31v8.21h4.07v2.05L196.25,52.42z"/>
				<path id="Path_2148" class="st1" d="M213.76,52.42h-2.4l-0.55-2h-3.44l-0.55,2h-2.4l3.13-10.26h3.08L213.76,52.42z M207.89,48.5
					h2.36l-1.17-4.3L207.89,48.5z"/>
				<path id="Path_2149" class="st1" d="M217.89,45.68v6.75h-2.2V42.16h2.84l3.37,7.07v-7.07h2.2v10.26h-2.85L217.89,45.68z"/>
			</g>
		</g>
	</g>
</g>
</svg>
