<svg xmlns="http://www.w3.org/2000/svg" width="539.977" height="86.554" viewBox="0 0 539.977 86.554"><path d="M281.94,84.708c-2.082-3.451-3.238-7.745-4.646-11.518q-2.215-5.91-4.25-11.882-2.13-6.213-4.09-12.47a70.119,70.119,0,0,1-13.985,18.19c-4.931,4.43-11,9.073-17.829,9.716-6.237.588-11.219-2.494-13-8.531a28.914,28.914,0,0,1-.872-10.247l-.005.009c.008-.08.017-.16.025-.241.046-.614.094-1.278.163-1.962a121.853,121.853,0,0,1-13.6,16.657c-4.324,4.529-8.871,9.708-14.928,11.882-4.038,1.446-8.885,1.209-12.268-1.684-5.879-5.034-6.436-16.376-6.356-23.459.033-3.47.23-6.99.553-10.527a58.684,58.684,0,0,1-24.281,13.646c-13.782,3.78-28.476,2.95-42.36.191-12.7-2.518-25.043-7.761-37.586-10.846-11.093-2.727-28.446-7.587-40.242-6.944-4.711.257-15.082.857-29.449,9.005-.576.324-3.427-.2-2.863-.5,15.726-8.435,27.447-9.84,32.236-9.912,9.905-.148,19.084,1.979,28.124,3.88C82.465,51.8,103.11,61.329,125.725,62.908c14.675,1.023,29.768-1.2,42.083-9.676a57.864,57.864,0,0,0,9.319-7.329A120.512,120.512,0,0,1,186.5,10.446c1.873-4.181,3.96-9.962,9.315-10.4A4.848,4.848,0,0,1,196.545,0a4.933,4.933,0,0,1,4.865,5c.169,2.941-1.315,6.013-2.329,8.692q-1.721,4.575-3.82,8.979a96.507,96.507,0,0,1-9.553,16.058c-.717,4.838-1.3,9.7-1.654,14.6-.515,7.056-1.178,14.375.215,21.371.533,2.7,1.336,7.2,3.988,8.77,2.911,1.722,7.123-.665,9.512-2.3,5.467-3.741,10.165-9.239,14.517-14.184a147.081,147.081,0,0,0,12.623-16.882.607.607,0,0,1,.076-.076,4.2,4.2,0,0,1,.5-.583c.046-.076.094-.153.143-.229.243-.372,1.167-.52,1.858-.4a1.187,1.187,0,0,1,.971.477c.953,1.815.629,4.478.563,6.468a58.771,58.771,0,0,0,.29,8c.592,5.7,2.993,12.677,10.087,10.792,13.08-3.48,22.569-16.784,28.792-28.255-.77-2.5-1.514-5-2.212-7.528-.309-1.111,4.522-1.49,4.994-.271,2.969,7.716,5.721,15.5,8.565,23.263,1.445,3.944,2.863,7.9,4.318,11.835.74,2,1.664,4.03,2.46,6.084a113.467,113.467,0,0,0,9.628-25.767,21.731,21.731,0,0,1-5.153-6.953,9.834,9.834,0,0,1-1.066-5.219,4.923,4.923,0,0,1,3.04-4.114,5.091,5.091,0,0,1,5.69,2.626,11.674,11.674,0,0,1,1.061,6.611,45.28,45.28,0,0,1-1.1,7.1A27.01,27.01,0,0,0,308.5,59.306a40.8,40.8,0,0,0,19.038.285c1.125-.223,2.253-.483,3.367-.787-.01-.172-.03-.338-.03-.512-.11-4.705,1.71-9.834,5.891-12.384,2.327-1.417,8.754-3.2,10.21.33,1.179,2.853-1.526,5.512-3.425,7.277A25.574,25.574,0,0,1,336.74,58a15.7,15.7,0,0,0,3.094,9.445c9.122,12.174,26.7,5.968,38.1,1.152,11.69-4.936,22.753-11.218,34.127-16.815,20.809-10.234,43.645-17.788,67.053-17.7A107.879,107.879,0,0,1,538.8,52.971c.862.581-1.83.935-2.423.567-14.107-8.761-29.19-15.45-45.792-17.48s-33.375.532-49.219,5.607c-15.287,4.9-29.357,12.254-43.573,19.581-13,6.7-27.755,15.076-42.784,15.055-10.03-.014-22.566-5.378-24-16.311a49.115,49.115,0,0,1-7.608,1.27,42.139,42.139,0,0,1-18.74-2.021,27.843,27.843,0,0,1-6.657-3.611c-.476,1.864-1.021,3.715-1.59,5.554a179.653,179.653,0,0,1-8.447,23.172c-.4.913-.643.822-1.111.968l-.033.011a6.415,6.415,0,0,1-1.782.22C283.689,85.554,282.266,85.248,281.94,84.708Zm61.052-38.525a7.275,7.275,0,0,0-3.472,2.621,14.257,14.257,0,0,0-2.423,5.649l.005.005a16.555,16.555,0,0,0-.314,2.182,24.892,24.892,0,0,0,4.14-2.465,13.391,13.391,0,0,0,4.275-5.23c.7-1.889.19-2.93-1.156-2.93A3.905,3.905,0,0,0,342.993,46.183Zm-49.032-7.571c-1.219.156-1.909,1.5-2.083,2.714a10.982,10.982,0,0,0,1.624,6.75,21.143,21.143,0,0,0,2.888,3.958,24.738,24.738,0,0,0,.453-10.273c-.3-1.46-1.22-3.165-2.649-3.164A1.888,1.888,0,0,0,293.961,38.612Zm-98.9-37.155c-2.59,1.014-3.26,5.572-3.73,7.8l0,.006c-1.748,8.263-3.5,16.512-4.883,24.822,1.762-2.717,3.38-5.52,4.856-8.382,2.863-5.54,5.916-11.707,7.348-17.806a8.312,8.312,0,0,0,.065-4.357,2.412,2.412,0,0,0-.1-.374,2.78,2.78,0,0,0-3.55-1.706Zm32.087,40.97c-1.527-.122-2.7-1.174-2.6-2.34a2.524,2.524,0,0,1,2.942-1.907c1.532.115,2.7,1.17,2.6,2.342a2.519,2.519,0,0,1-2.942,1.905ZM334.623,26.1l-7.655-15.386V26.1h-5.025V2.709h6.463L336.1,18.833V2.709h5.026V26.1Zm-22.559,0L310.8,21.538h-7.835L301.7,26.1h-5.481l7.131-23.4h7.025l7.166,23.4Zm-7.9-8.958h5.374l-2.669-9.8ZM277.635,26.1V2.709h5.27V21.433h9.274V26.1Zm-11.6,0V16.69h-7.553V26.1h-5.27V2.709h5.27v9.309h7.553V2.709H271.3V26.1Zm-22.7,0-1.264-4.567h-7.833L232.974,26.1h-5.479l7.131-23.4h7.025l7.167,23.4Zm-7.9-8.958h5.373l-2.67-9.8Z" transform="translate(0.504 0.5)" fill="#3c3c3c" stroke="rgba(0,0,0,0)" stroke-miterlimit="10" stroke-width="1"/></svg>