<svg xmlns="http://www.w3.org/2000/svg" xmlns:xlink="http://www.w3.org/1999/xlink" width="123.915" height="17.001" viewBox="0 0 123.915 17.001">
  <defs>
    <clipPath id="clip-path">
      <path id="Path_227" data-name="Path 227" d="M17-12.388H0v-17H17Z" transform="translate(0 29.388)" fill="#343333"/>
    </clipPath>
  </defs>
  <g id="Group_3191" data-name="Group 3191" transform="translate(-1641.976 -158)">
    <g id="Symbol_13_4" data-name="Symbol 13 – 4" transform="translate(1641.976 158)">
      <path id="Path_3" data-name="Path 3" d="M8.5,1.511a26.063,26.063,0,0,1,3.4.094,4.38,4.38,0,0,1,1.606.283,3.317,3.317,0,0,1,1.606,1.606A4.38,4.38,0,0,1,15.394,5.1c0,.85.094,1.133.094,3.4a26.062,26.062,0,0,1-.094,3.4,4.381,4.381,0,0,1-.283,1.606,3.317,3.317,0,0,1-1.606,1.606,4.38,4.38,0,0,1-1.606.283c-.85,0-1.133.094-3.4.094a26.062,26.062,0,0,1-3.4-.094,4.381,4.381,0,0,1-1.606-.283,3.317,3.317,0,0,1-1.606-1.606A4.38,4.38,0,0,1,1.606,11.9c0-.85-.094-1.133-.094-3.4a26.063,26.063,0,0,1,.094-3.4,4.38,4.38,0,0,1,.283-1.606A3.392,3.392,0,0,1,2.55,2.55a1.6,1.6,0,0,1,.944-.661A4.38,4.38,0,0,1,5.1,1.606a26.063,26.063,0,0,1,3.4-.094M8.5,0A27.906,27.906,0,0,0,5.006.094,5.831,5.831,0,0,0,2.928.472a3.7,3.7,0,0,0-1.511.944A3.7,3.7,0,0,0,.472,2.928,4.3,4.3,0,0,0,.094,5.006,27.906,27.906,0,0,0,0,8.5a27.906,27.906,0,0,0,.094,3.494,5.831,5.831,0,0,0,.378,2.078,3.7,3.7,0,0,0,.944,1.511,3.7,3.7,0,0,0,1.511.944,5.831,5.831,0,0,0,2.078.378A27.906,27.906,0,0,0,8.5,17a27.906,27.906,0,0,0,3.494-.094,5.831,5.831,0,0,0,2.078-.378,3.962,3.962,0,0,0,2.456-2.456,5.831,5.831,0,0,0,.378-2.078c0-.944.094-1.228.094-3.494a27.906,27.906,0,0,0-.094-3.494,5.831,5.831,0,0,0-.378-2.078,3.7,3.7,0,0,0-.944-1.511A3.7,3.7,0,0,0,14.072.472,5.831,5.831,0,0,0,11.994.094,27.906,27.906,0,0,0,8.5,0m0,4.156A4.274,4.274,0,0,0,4.156,8.5,4.344,4.344,0,1,0,8.5,4.156m0,7.178A2.783,2.783,0,0,1,5.667,8.5,2.783,2.783,0,0,1,8.5,5.667,2.783,2.783,0,0,1,11.333,8.5,2.783,2.783,0,0,1,8.5,11.333m4.533-8.406a1.039,1.039,0,1,0,1.039,1.039,1.048,1.048,0,0,0-1.039-1.039" fill="#fff" fill-rule="evenodd"/>
    </g>
    <g id="Symbol_12_4" data-name="Symbol 12 – 4" transform="translate(1677.541 158)">
      <rect id="Rectangle_393" data-name="Rectangle 393" width="17" height="17" transform="translate(0.419)" fill="none"/>
      <path id="Path_2" data-name="Path 2" d="M43.383,15.789A9.828,9.828,0,0,0,53.3,5.872V5.4A7.677,7.677,0,0,0,55,3.606a7.84,7.84,0,0,1-1.983.567,3.675,3.675,0,0,0,1.511-1.889,8.663,8.663,0,0,1-2.172.85A3.373,3.373,0,0,0,49.806,2a3.548,3.548,0,0,0-3.494,3.494,1.841,1.841,0,0,0,.094.756,9.764,9.764,0,0,1-7.178-3.683,3.617,3.617,0,0,0-.472,1.794,3.752,3.752,0,0,0,1.511,2.928,3.184,3.184,0,0,1-1.606-.472h0a3.452,3.452,0,0,0,2.833,3.4,2.912,2.912,0,0,1-.944.094,1.607,1.607,0,0,1-.661-.094,3.578,3.578,0,0,0,3.306,2.456,7.131,7.131,0,0,1-4.344,1.511,2.615,2.615,0,0,1-.85-.094,8.914,8.914,0,0,0,5.383,1.7" transform="translate(-38 0.124)" fill="#fff" fill-rule="evenodd"/>
    </g>
    <g id="Symbol_11_4" data-name="Symbol 11 – 4" transform="translate(1713.526 158)">
      <rect id="Rectangle_392" data-name="Rectangle 392" width="17" height="17" transform="translate(0)" fill="none"/>
      <path id="Path_1" data-name="Path 1" d="M85.761,17V9.256h2.644l.378-3.022H85.761V4.344c0-.85.283-1.511,1.511-1.511h1.606V.094C88.5.094,87.556,0,86.517,0a3.646,3.646,0,0,0-3.872,3.967V6.233H80V9.256h2.644V17Z" transform="translate(-76.169 0.001)" fill="#fff" fill-rule="evenodd"/>
    </g>
    <g id="Search_Icon" data-name="Search Icon" transform="translate(1748.891 158)">
      <g id="Group_44" data-name="Group 44" clip-path="url(#clip-path)">
        <g id="Group_41" data-name="Group 41" transform="translate(0 0)">
          <path id="Path_224" data-name="Path 224" d="M-5.113-10.226A7.025,7.025,0,0,0,1.9-17.243a7.025,7.025,0,0,0-7.017-7.016,7.025,7.025,0,0,0-7.017,7.016,7.025,7.025,0,0,0,7.017,7.017m0-12.63A5.62,5.62,0,0,1,.5-17.243a5.62,5.62,0,0,1-5.613,5.613,5.62,5.62,0,0,1-5.613-5.613,5.62,5.62,0,0,1,5.613-5.613" transform="translate(12.13 24.259)" fill="#fff"/>
        </g>
        <g id="Group_42" data-name="Group 42" transform="translate(2.742 2.48)">
          <path id="Path_225" data-name="Path 225" d="M-4.306-2.532a.7.7,0,0,0,.612-.357A4.363,4.363,0,0,1-1.8-4.674a.7.7,0,0,0,.322-.938.7.7,0,0,0-.939-.322,5.754,5.754,0,0,0-2.5,2.357.7.7,0,0,0,.267.956.7.7,0,0,0,.343.09" transform="translate(5.007 6.006)" fill="#fff"/>
        </g>
        <g id="Group_43" data-name="Group 43" transform="translate(10.78 10.78)">
          <path id="Path_226" data-name="Path 226" d="M4.3-4.533a.7.7,0,0,0,.5-.205.7.7,0,0,0,0-.993L-.016-10.547a.7.7,0,0,0-.992,0,.7.7,0,0,0,0,.992L3.808-4.738a.7.7,0,0,0,.5.205" transform="translate(1.213 10.753)" fill="#fff"/>
        </g>
      </g>
    </g>
  </g>
</svg>
